/* XPM */
static char * pokeball_16_15_xpm[] = {
"16 15 237 2",
"  	c None",
". 	c #938772",
"+ 	c #928671",
"@ 	c #90836F",
"# 	c #908872",
"$ 	c #8E816C",
"% 	c #3F2618",
"& 	c #482A20",
"* 	c #4E2D25",
"= 	c #4A2922",
"- 	c #482C23",
"; 	c #4C3528",
"> 	c #9C8F7A",
", 	c #958E75",
"' 	c #8F886F",
") 	c #91876F",
"! 	c #938B74",
"~ 	c #8B866F",
"{ 	c #918A73",
"] 	c #756B55",
"^ 	c #765849",
"/ 	c #712F2E",
"( 	c #802B31",
"_ 	c #812A2E",
": 	c #792428",
"< 	c #78272C",
"[ 	c #6F3131",
"} 	c #735650",
"| 	c #796E60",
"1 	c #928872",
"2 	c #9A9078",
"3 	c #9B9179",
"4 	c #8D8871",
"5 	c #978A76",
"6 	c #553829",
"7 	c #551F18",
"8 	c #A04D52",
"9 	c #A73F4B",
"0 	c #BD4957",
"a 	c #BE4555",
"b 	c #BB4657",
"c 	c #AF505B",
"d 	c #4A1014",
"e 	c #644540",
"f 	c #A18F7F",
"g 	c #ADA38B",
"h 	c #B1A78F",
"i 	c #9F947F",
"j 	c #827762",
"k 	c #482D1D",
"l 	c #783935",
"m 	c #AD5D5F",
"n 	c #FFD5D8",
"o 	c #DB7E89",
"p 	c #AB3246",
"q 	c #9B132D",
"r 	c #950F28",
"s 	c #890F23",
"t 	c #A64250",
"u 	c #843F40",
"v 	c #533526",
"w 	c #797058",
"x 	c #968D75",
"y 	c #857662",
"z 	c #622C25",
"A 	c #8D3039",
"B 	c #B14855",
"C 	c #FFB3BD",
"D 	c #C46472",
"E 	c #9A213A",
"F 	c #8D0624",
"G 	c #910323",
"H 	c #8C0420",
"I 	c #AC2E44",
"J 	c #8F2D38",
"K 	c #5F2C24",
"L 	c #68503F",
"M 	c #7D6D5C",
"N 	c #4E3824",
"O 	c #5D211A",
"P 	c #AE5258",
"Q 	c #881326",
"R 	c #8A0E25",
"S 	c #B23C54",
"T 	c #8F1E36",
"U 	c #780B27",
"V 	c #800C2A",
"W 	c #91092D",
"X 	c #95072B",
"Y 	c #89001E",
"Z 	c #982135",
"` 	c #A75356",
" .	c #57211D",
"..	c #4E362E",
"+.	c #513D2B",
"@.	c #672726",
"#.	c #B35160",
"$.	c #8B102A",
"%.	c #880926",
"&.	c #8E1C37",
"*.	c #680620",
"=.	c #510218",
"-.	c #600F28",
";.	c #740A29",
">.	c #85092C",
",.	c #8C0525",
"'.	c #9A1E38",
").	c #AA525D",
"!.	c #4F181B",
"~.	c #523936",
"{.	c #524439",
"].	c #573437",
"^.	c #8C4A59",
"/.	c #861733",
"(.	c #7D0827",
"_.	c #5A0B21",
":.	c #663445",
"<.	c #664953",
"[.	c #4C2F39",
"}.	c #4E1C2A",
"|.	c #67162B",
"1.	c #810A27",
"2.	c #891934",
"3.	c #874758",
"4.	c #46272D",
"5.	c #544742",
"6.	c #695E59",
"7.	c #54464B",
"8.	c #300918",
"9.	c #631128",
"0.	c #701A33",
"a.	c #330215",
"b.	c #CCB8C3",
"c.	c #FDFAFE",
"d.	c #858286",
"e.	c #614E52",
"f.	c #3F121D",
"g.	c #6F1930",
"h.	c #5E0B22",
"i.	c #31091B",
"j.	c #584B54",
"k.	c #736F6A",
"l.	c #605A55",
"m.	c #6D6971",
"n.	c #AB9DAB",
"o.	c #553341",
"p.	c #371321",
"q.	c #220D1B",
"r.	c #807881",
"s.	c #A4A3A8",
"t.	c #868688",
"u.	c #524A4F",
"v.	c #2B181E",
"w.	c #39121F",
"x.	c #664152",
"y.	c #A89CAE",
"z.	c #585962",
"A.	c #717269",
"B.	c #6F6962",
"C.	c #7B7A83",
"D.	c #CDCDDA",
"E.	c #5F5B63",
"F.	c #39363E",
"G.	c #403C47",
"H.	c #585761",
"I.	c #6B6A6F",
"J.	c #737478",
"K.	c #58585D",
"L.	c #433F47",
"M.	c #362B38",
"N.	c #79707F",
"O.	c #CDD0DD",
"P.	c #62686D",
"Q.	c #707266",
"R.	c #B1A89B",
"S.	c #948E94",
"T.	c #474754",
"U.	c #A3ADB5",
"V.	c #CFDADF",
"W.	c #FFFFFF",
"X.	c #6D6F73",
"Y.	c #040809",
"Z.	c #070C0C",
"`.	c #919299",
" +	c #FCFCFF",
".+	c #D5D4E8",
"++	c #9695A7",
"@+	c #434650",
"#+	c #7A7C7B",
"$+	c #8F8D7E",
"%+	c #AEA692",
"&+	c #9E9896",
"*+	c #818288",
"=+	c #7B888B",
"-+	c #8E9B9F",
";+	c #DBDEE6",
">+	c #B4B5BE",
",+	c #9CA0A4",
"'+	c #9CA0A6",
")+	c #C0C0CB",
"!+	c #DCDBEB",
"~+	c #8E90A4",
"{+	c #828491",
"]+	c #878787",
"^+	c #99978C",
"/+	c #96907B",
"(+	c #A4A488",
"_+	c #A7A694",
":+	c #ACAEA4",
"<+	c #656864",
"[+	c #65666D",
"}+	c #BFBCCD",
"|+	c #E3E0F3",
"1+	c #FFFEFF",
"2+	c #FFFDFF",
"3+	c #DDDAED",
"4+	c #B7B4C5",
"5+	c #55535D",
"6+	c #757371",
"7+	c #AEA99B",
"8+	c #A19980",
"9+	c #7F7F61",
"0+	c #6E6E55",
"a+	c #6C6A59",
"b+	c #848277",
"c+	c #7F7A7B",
"d+	c #5F5866",
"e+	c #5C5565",
"f+	c #5E5863",
"g+	c #5C565F",
"h+	c #635B6C",
"i+	c #625B66",
"j+	c #6F6B68",
"k+	c #757364",
"l+	c #7A745D",
"m+	c #898267",
"n+	c #918A6F",
". + @ # $ % & * = - ; > , ' ' ) ",
"! ~ { ] ^ / ( _ : < [ } | 1 2 3 ",
"4 ~ 5 6 7 8 9 0 a b c d e f g h ",
"i j k l m n o p q r s t u v w x ",
"y ^ z A B C D E F G H I J K L M ",
"N O P Q R S T U V W X Y Z `  ...",
"+.@.#.$.%.&.*.=.-.;.>.,.'.).!.~.",
"{.].^./.(._.:.<.[.}.|.1.2.3.4.5.",
"6.7.8.9.0.a.b.c.d.e.f.g.h.i.j.k.",
"l.m.n.o.p.q.r.s.t.u.v.w.x.y.z.A.",
"B.C.D.E.F.G.H.I.J.K.L.M.N.O.P.Q.",
"R.S.T.U.V.W.X.Y.Z.`. +.+++@+#+$+",
"%+&+*+=+-+;+>+,+'+)+!+~+{+]+^+/+",
"(+_+:+<+[+}+|+1+2+3+4+5+6+7+%+8+",
"9+0+a+b+c+d+e+f+g+h+i+j+k+l+m+n+"};
