/* XPM */
static char * perso_xpm[] = {
"20 30 384 2",
"  	c #A88868",
". 	c #A78767",
"+ 	c #A58567",
"@ 	c #C2A275",
"# 	c #A78768",
"$ 	c #AF8D67",
"% 	c #997C68",
"& 	c #00256B",
"* 	c #8C7368",
"= 	c #B08E67",
"- 	c #A58566",
"; 	c #AB8B69",
"> 	c #BD9D72",
", 	c #BA9B71",
"' 	c #B3936D",
") 	c #AC8B67",
"! 	c #AD8B67",
"~ 	c #836455",
"{ 	c #7D7582",
"] 	c #C2C4CC",
"^ 	c #96919B",
"/ 	c #866C62",
"( 	c #AD8C67",
"_ 	c #AB8B68",
": 	c #A98A69",
"< 	c #B5966F",
"[ 	c #C4A476",
"} 	c #B3926C",
"| 	c #9F8065",
"1 	c #947865",
"2 	c #957966",
"3 	c #967A66",
"4 	c #977962",
"5 	c #7A717E",
"6 	c #A6ADBE",
"7 	c #FFFFFE",
"8 	c #9BA2B5",
"9 	c #251E5A",
"0 	c #987B66",
"a 	c #A38264",
"b 	c #A58364",
"c 	c #A38265",
"d 	c #A68667",
"e 	c #AA8A69",
"f 	c #AD8B66",
"g 	c #91786B",
"h 	c #283C73",
"i 	c #273C73",
"j 	c #324173",
"k 	c #2E3D71",
"l 	c #001666",
"m 	c #C0C2CA",
"n 	c #FBFBFA",
"o 	c #989CAD",
"p 	c #000061",
"q 	c #3A4473",
"r 	c #86635E",
"s 	c #956B56",
"t 	c #906858",
"u 	c #B0906C",
"v 	c #B5946D",
"w 	c #6F5252",
"x 	c #898797",
"y 	c #D3D5DC",
"z 	c #D5D7DD",
"A 	c #C5CAD4",
"B 	c #B0BBCB",
"C 	c #AFBACA",
"D 	c #D3DAE2",
"E 	c #EAEFF3",
"F 	c #E4E9EE",
"G 	c #C7CDD7",
"H 	c #BAC3D0",
"I 	c #BCC5D2",
"J 	c #6D718D",
"K 	c #73575E",
"L 	c #A38062",
"M 	c #A88767",
"N 	c #A18266",
"O 	c #92796E",
"P 	c #797993",
"Q 	c #B8BECE",
"R 	c #FFFFFF",
"S 	c #FAFAFD",
"T 	c #ECEFF6",
"U 	c #EEF1F7",
"V 	c #E2E7F0",
"W 	c #D6DDE8",
"X 	c #D5DEE7",
"Y 	c #E0E7F0",
"Z 	c #DBE2EC",
"` 	c #BEC6D2",
" .	c #797B8F",
"..	c #826A65",
"+.	c #AC8C68",
"@.	c #967966",
"#.	c #2D3E72",
"$.	c #B2BECB",
"%.	c #E9EFF2",
"&.	c #F8F8F8",
"*.	c #F6F7F6",
"=.	c #F6F7F5",
"-.	c #F6F8F6",
";.	c #F8F9F7",
">.	c #E5EAED",
",.	c #D4DEE5",
"'.	c #D8E0E8",
").	c #DDE6EC",
"!.	c #B3BECA",
"~.	c #27366D",
"{.	c #977A65",
"].	c #AE8C67",
"^.	c #B08F6D",
"/.	c #9B7A61",
"(.	c #020031",
"_.	c #6BAD76",
":.	c #B7E0BF",
"<.	c #DFE5EB",
"[.	c #A3D4A7",
"}.	c #8BD089",
"|.	c #9BD49B",
"1.	c #9CD49B",
"2.	c #84CC86",
"3.	c #98CEA2",
"4.	c #D7E0E7",
"5.	c #B2DDBC",
"6.	c #67AB72",
"7.	c #000021",
"8.	c #9C7A5F",
"9.	c #B2916D",
"0.	c #AA8969",
"a.	c #97785D",
"b.	c #726245",
"c.	c #316223",
"d.	c #1E980B",
"e.	c #93C59E",
"f.	c #DBE0EC",
"g.	c #C2DFC7",
"h.	c #8DD08A",
"i.	c #39BF39",
"j.	c #8FD18C",
"k.	c #C5E1C9",
"l.	c #DDE2ED",
"m.	c #94C59E",
"n.	c #1C9809",
"o.	c #736346",
"p.	c #917059",
"q.	c #9E7A61",
"r.	c #AD8C6B",
"s.	c #6C4F3E",
"t.	c #002906",
"u.	c #478C57",
"v.	c #248635",
"w.	c #80A98E",
"x.	c #D3E0E2",
"y.	c #FCF9FF",
"z.	c #D7EBD7",
"A.	c #7BCB7C",
"B.	c #00300E",
"C.	c #5A3331",
"D.	c #966E5C",
"E.	c #AF8E6D",
"F.	c #685338",
"G.	c #000023",
"H.	c #3A5377",
"I.	c #247758",
"J.	c #34A24B",
"K.	c #7CCD87",
"L.	c #E7F3EB",
"M.	c #FAFBFD",
"N.	c #EEF5F1",
"O.	c #665036",
"P.	c #AC8B6B",
"Q.	c #8C6453",
"R.	c #B48866",
"S.	c #AF8669",
"T.	c #121B51",
"U.	c #A29780",
"V.	c #C9C290",
"W.	c #C9CC93",
"X.	c #F5E3CB",
"Y.	c #FFE9DC",
"Z.	c #FDE5DA",
"`.	c #AE8669",
" +	c #B48966",
".+	c #8E6654",
"++	c #620C2F",
"@+	c #DCA57F",
"#+	c #EEB889",
"$+	c #310900",
"%+	c #D4B096",
"&+	c #FFDBBC",
"*+	c #FDD0B3",
"=+	c #E5BC9E",
"-+	c #E9C09F",
";+	c #F9CEAB",
">+	c #692736",
",+	c #D6A17B",
"'+	c #EBB487",
")+	c #753C3C",
"!+	c #D6B096",
"~+	c #FFDBB9",
"{+	c #F5CEAF",
"]+	c #6D5E5A",
"^+	c #A38A7A",
"/+	c #FFD6B5",
"(+	c #9A775D",
"_+	c #A2775E",
":+	c #B27961",
"<+	c #C68166",
"[+	c #DA9B7E",
"}+	c #F1B994",
"|+	c #F7C69B",
"1+	c #464345",
"2+	c #937865",
"3+	c #FFCB9F",
"4+	c #AD8E6C",
"5+	c #8C6B56",
"6+	c #8A564B",
"7+	c #C58167",
"8+	c #D48769",
"9+	c #E69E76",
"0+	c #EFB284",
"a+	c #976A58",
"b+	c #BB8C6D",
"c+	c #FEC591",
"d+	c #AB8C6B",
"e+	c #9D7D61",
"f+	c #713C3D",
"g+	c #BC7961",
"h+	c #DA9271",
"i+	c #D58D6E",
"j+	c #D78D6E",
"k+	c #E8A880",
"l+	c #F9C191",
"m+	c #B1906E",
"n+	c #9B7D60",
"o+	c #000000",
"p+	c #411E15",
"q+	c #77493A",
"r+	c #985A4E",
"s+	c #D48B6E",
"t+	c #E79D79",
"u+	c #E6A07B",
"v+	c #9B7E60",
"w+	c #B08F6E",
"x+	c #8A7659",
"y+	c #7E6B4F",
"z+	c #AA825E",
"A+	c #574738",
"B+	c #000017",
"C+	c #532B39",
"D+	c #9B6550",
"E+	c #A76E54",
"F+	c #9D6750",
"G+	c #7C694E",
"H+	c #947F5E",
"I+	c #BE9D73",
"J+	c #A78667",
"K+	c #6B4536",
"L+	c #8E5E48",
"M+	c #FEC797",
"N+	c #A07F67",
"O+	c #000025",
"P+	c #001C37",
"Q+	c #00000D",
"R+	c #2E0000",
"S+	c #8B5A46",
"T+	c #826144",
"U+	c #C7A677",
"V+	c #744B45",
"W+	c #C64141",
"X+	c #F98573",
"Y+	c #FED4B1",
"Z+	c #96836D",
"`+	c #001D38",
" @	c #001734",
".@	c #802C37",
"+@	c #C03E3C",
"@@	c #C84642",
"#@	c #7E5448",
"$@	c #642B37",
"%@	c #BF3D41",
"&@	c #ED6B61",
"*@	c #E29884",
"=@	c #956558",
"-@	c #6C1E27",
";@	c #98343D",
">@	c #2C223A",
",@	c #4D273B",
"'@	c #91343E",
")@	c #EE6B60",
"!@	c #B6333D",
"~@	c #00002E",
"{@	c #81564B",
"]@	c #984540",
"^@	c #AA262E",
"/@	c #A9001F",
"(@	c #7F2F33",
"_@	c #8D413F",
":@	c #BB4241",
"<@	c #80303C",
"[@	c #2C2138",
"}@	c #001A37",
"|@	c #7E2F33",
"1@	c #AC2B35",
"2@	c #883D41",
"3@	c #424545",
"4@	c #AB8A6A",
"5@	c #735A44",
"6@	c #200103",
"7@	c #422424",
"8@	c #804141",
"9@	c #98343C",
"0@	c #001B37",
"a@	c #200306",
"b@	c #00002A",
"c@	c #735E51",
"d@	c #AB8B6A",
"e@	c #9A7E61",
"f@	c #726049",
"g@	c #000802",
"h@	c #432424",
"i@	c #923F3E",
"j@	c #8D4143",
"k@	c #663A40",
"l@	c #000A04",
"m@	c #786752",
"n@	c #9F8366",
"o@	c #AE8D6B",
"p@	c #B89671",
"q@	c #A88B66",
"r@	c #1E170E",
"s@	c #230613",
"t@	c #2B0515",
"u@	c #49262A",
"v@	c #633836",
"w@	c #6A3735",
"x@	c #281015",
"y@	c #19120B",
"z@	c #97775C",
"A@	c #A98568",
"B@	c #A07D62",
"C@	c #C1A175",
"D@	c #B6996D",
"E@	c #1C190D",
"F@	c #652A32",
"G@	c #6E3C39",
"H@	c #01220C",
"I@	c #000A01",
"J@	c #693335",
"K@	c #090805",
"L@	c #805C4E",
"M@	c #946B5B",
"N@	c #B2916E",
"O@	c #9C8160",
"P@	c #9E002A",
"Q@	c #AE8155",
"R@	c #66BB68",
"S@	c #6F6C4A",
"T@	c #4E001E",
"U@	c #9F002C",
"V@	c #78554A",
"W@	c #9C7560",
"X@	c #A48365",
"Y@	c #A98969",
"Z@	c #9C7F61",
"`@	c #745F47",
" #	c #902B31",
".#	c #8C6941",
"+#	c #58A25A",
"@#	c #5C5A3D",
"##	c #693A38",
"$#	c #745E47",
"%#	c #912D31",
"&#	c #735E47",
"*#	c #92725A",
"=#	c #A48165",
"-#	c #AA8B69",
";#	c #AE8D6C",
">#	c #5D513C",
",#	c #B18F6E",
"'#	c #AC8B6A",
")#	c #A88968",
"    . + @ @ # #       $ % & * =         ",
"  - ; > , ' ) ) ! ! $ ~ { ] ^ / ( _ : : ",
"  ; < [ } | 1 1 2 3 4 5 6 7 8 9 0 a b c ",
"d > [ e f g h i j k l m 7 n o p q r s t ",
"# u v f w x y z A B C D E F G H I J K L ",
"  M N O P Q R R S T U V W X Y Z `  ...+.",
"  ! @.#.$.%.&.*.=.-.;.>.,.'.).!.~.{.].  ",
"  ^./.(._.:.<.[.}.|.1.2.3.4.5.6.7.8.9.: ",
"0.a.b.c.d.e.f.g.h.i.i.j.k.l.m.n.c.o.p.q.",
"r.s.t.u.v.w.x.y.z.A.A.z.y.x.w.v.u.B.C.D.",
"E.F.G.H.I.J.K.L.M.N.N.M.L.K.J.I.H.G.O.P.",
"Q.R.S.T.U.V.W.X.Y.Z.Z.Y.X.W.V.U.T.`. +.+",
"++@+#+$+%+&+*+=+-+;+;+-+=+*+&+%+$+#+@+++",
">+,+'+)+!+~+{+]+^+/+/+^+]+{+~+!+)+'+,+>+",
"(+_+:+<+[+}+|+1+2+3+3+2+1+|+}+[+<+:+_+(+",
"4+5+6+7+8+9+0+a+b+c+c+b+a+0+9+8+7+6+5+4+",
"  d+e+f+g+h+i+j+k+l+l+k+j+i+h+g+f+e+d+  ",
"  m+n+o+p+q+r+s+t+u+u+t+s+r+q+p+o+v+w+- ",
"r.x+y+z+A+B+C+D+E+F+F+E+D+C+B+A+z+G+H+I+",
"J+K+L+M+N+O+P+Q+o+R+R+o+Q+P+O+N+M+S+T+U+",
"V+W+X+Y+Z+o+`+ @.@+@+@.@ @`+o+Z+Y+X+@@#@",
"$@%@&@*@=@-@;@>@,@'@'@,@>@;@-@=@*@)@!@~@",
"{@]@^@/@(@_@:@<@[@}@}@[@<@:@_@|@/@1@2@3@",
"4@5@o+6@o+7@8@:@9@0@0@9@:@8@7@o+a@b@c@0.",
"d@e@f@g@o+o+h@i@j@k@k@j@i@h@o+o+l@m@n@o@",
". p@q@r@s@t@o+u@v@w@w@v@u@o+t@x@y@z@A@B@",
"d C@D@E@F@G@H@I@o+o+o+o+I@H@G@J@K@L@M@t ",
"  N@O@o+P@Q@R@S@T@o+o+T@S@R@Q@U@o+V@W@X@",
"  Y@Z@`@ #.#+#@###$#$###@#+#.#%#&#*#=#-#",
"    4@;#>#o+o+o+`@,#,#`@o+o+o+>#;#'#)#  "};
