/* XPM */
static char * pl_22_30_xpm[] = {
"22 30 637 2",
"  	c None",
". 	c #B08C6C",
"+ 	c #9F795E",
"@ 	c #936C4E",
"# 	c #B18B6A",
"$ 	c #9F7A5C",
"% 	c #8F6A54",
"& 	c #8E6B59",
"* 	c #906E57",
"= 	c #8B6C4A",
"- 	c #B09368",
"; 	c #C6A880",
"> 	c #C6A588",
", 	c #8D7B7B",
"' 	c #413755",
") 	c #7E645E",
"! 	c #8B6551",
"~ 	c #714834",
"{ 	c #835B4F",
"] 	c #956E61",
"^ 	c #8F6954",
"/ 	c #926D54",
"( 	c #96705A",
"_ 	c #9A755B",
": 	c #9F7B60",
"< 	c #A58064",
"[ 	c #9A7658",
"} 	c #906B4F",
"| 	c #906B51",
"1 	c #906B53",
"2 	c #986D57",
"3 	c #AF866C",
"4 	c #917355",
"5 	c #665441",
"6 	c #4D4147",
"7 	c #7C7C90",
"8 	c #F0F0F9",
"9 	c #706671",
"0 	c #69534E",
"a 	c #8A6E5F",
"b 	c #765545",
"c 	c #7F5745",
"d 	c #916A50",
"e 	c #967053",
"f 	c #A68064",
"g 	c #9D7959",
"h 	c #9C775A",
"i 	c #A58163",
"j 	c #9F7D65",
"k 	c #8E7267",
"l 	c #755F5C",
"m 	c #706262",
"n 	c #746162",
"o 	c #7B6364",
"p 	c #5F5053",
"q 	c #4C4750",
"r 	c #8D93A0",
"s 	c #D3DCE5",
"t 	c #F7FEFF",
"u 	c #7A7A89",
"v 	c #594A52",
"w 	c #7E6552",
"x 	c #815B3D",
"y 	c #855B42",
"z 	c #967255",
"A 	c #A78265",
"B 	c #B0856A",
"C 	c #A38360",
"D 	c #97785E",
"E 	c #8C6F5C",
"F 	c #9E857E",
"G 	c #786972",
"H 	c #434756",
"I 	c #3D4C5C",
"J 	c #3E495B",
"K 	c #44475C",
"L 	c #4E506A",
"M 	c #787A8E",
"N 	c #F1F6FB",
"O 	c #F0F9F5",
"P 	c #F5FEFE",
"Q 	c #A9ADBF",
"R 	c #473F4F",
"S 	c #5F4A40",
"T 	c #84644D",
"U 	c #926F5B",
"V 	c #AA8B6E",
"W 	c #A88565",
"X 	c #B1876B",
"Y 	c #89755F",
"Z 	c #78655E",
"` 	c #554955",
" .	c #4F4B64",
"..	c #8B8F9D",
"+.	c #EBF4F8",
"@.	c #E5F2F2",
"#.	c #E4EEF3",
"$.	c #D5D8E8",
"%.	c #D6D7EB",
"&.	c #E3E3F4",
"*.	c #E1DFE8",
"=.	c #DEDFDF",
"-.	c #DDE1E6",
";.	c #DCDFF2",
">.	c #BEBFDA",
",.	c #1F1A3C",
"'.	c #443F4D",
").	c #53474A",
"!.	c #A18A73",
"~.	c #B18F6D",
"{.	c #AB8A6A",
"].	c #6B5C6B",
"^.	c #494661",
"/.	c #3D4C5E",
"(.	c #59757A",
"_.	c #A7BBB5",
":.	c #F5FFF8",
"<.	c #F6FCF3",
"[.	c #F5F4F7",
"}.	c #F1F0FA",
"|.	c #EEEDF7",
"1.	c #EBEDF5",
"2.	c #EEF3F8",
"3.	c #E1E9EE",
"4.	c #D6DDE6",
"5.	c #DDDCEE",
"6.	c #E2E3FB",
"7.	c #C6D6ED",
"8.	c #849FB6",
"9.	c #5F758D",
"0.	c #5F5E60",
"a.	c #857162",
"b.	c #AC8D75",
"c.	c #433D62",
"d.	c #354360",
"e.	c #1F4548",
"f.	c #82A18F",
"g.	c #B1CBB7",
"h.	c #F4FFF7",
"i.	c #F4FEF6",
"j.	c #F6FCFA",
"k.	c #F4FAFD",
"l.	c #EFF5F5",
"m.	c #F3F9FC",
"n.	c #F1F7FA",
"o.	c #E4EEED",
"p.	c #DCE7E6",
"q.	c #D8E0E4",
"r.	c #D7DFE6",
"s.	c #D5E1EB",
"t.	c #D7E1ED",
"u.	c #E0E3F8",
"v.	c #696884",
"w.	c #635A66",
"x.	c #917F72",
"y.	c #000002",
"z.	c #95A2B0",
"A.	c #FAFFFF",
"B.	c #ECFFED",
"C.	c #C7EDCD",
"D.	c #87B48A",
"E.	c #7CAF82",
"F.	c #96C09C",
"G.	c #C6E6D1",
"H.	c #D4E8E4",
"I.	c #D7E5E3",
"J.	c #DBEBE8",
"K.	c #D7E6E1",
"L.	c #DBE6E4",
"M.	c #D5E3E4",
"N.	c #D8E2E6",
"O.	c #D5DCDF",
"P.	c #E2E2E8",
"Q.	c #EEEDFC",
"R.	c #EAEFFF",
"S.	c #8586A3",
"T.	c #514843",
"U.	c #415C4F",
"V.	c #B5C1BB",
"W.	c #FAFFF8",
"X.	c #A7CCAA",
"Y.	c #74B17E",
"Z.	c #6DB474",
"`.	c #6EC271",
" +	c #6ABB73",
".+	c #77B586",
"++	c #85B49A",
"@+	c #87AC98",
"#+	c #5F886D",
"$+	c #698A74",
"%+	c #A9BEB4",
"&+	c #CEE0DF",
"*+	c #DCE6EA",
"=+	c #E5E7EB",
"-+	c #83848A",
";+	c #000000",
">+	c #323D5D",
",+	c #48495F",
"'+	c #716363",
")+	c #5B6658",
"!+	c #849A86",
"~+	c #A4C8A6",
"{+	c #5C9862",
"]+	c #5BA263",
"^+	c #5DA462",
"/+	c #58A55C",
"(+	c #56A762",
"_+	c #54A266",
":+	c #57A662",
"<+	c #59A065",
"[+	c #41844A",
"}+	c #437B4B",
"|+	c #2C5735",
"1+	c #6F847B",
"2+	c #BAC6C8",
"3+	c #E8F0EF",
"4+	c #5F666B",
"5+	c #000013",
"6+	c #575160",
"7+	c #7D6C6B",
"8+	c #987B6A",
"9+	c #6B483D",
"0+	c #52603D",
"a+	c #4E8047",
"b+	c #448541",
"c+	c #438642",
"d+	c #417B49",
"e+	c #428550",
"f+	c #347B4B",
"g+	c #377A50",
"h+	c #3C7C4E",
"i+	c #438259",
"j+	c #3C7850",
"k+	c #23533D",
"l+	c #052028",
"m+	c #031721",
"n+	c #28343A",
"o+	c #D2E7EB",
"p+	c #49565A",
"q+	c #81735C",
"r+	c #957959",
"s+	c #AB886D",
"t+	c #724837",
"u+	c #987C5C",
"v+	c #B7AB80",
"w+	c #DBD8A9",
"x+	c #E8E2B0",
"y+	c #EBDBBB",
"z+	c #DED8B0",
"A+	c #97A281",
"B+	c #012217",
"C+	c #0A2B2E",
"D+	c #113035",
"E+	c #072328",
"F+	c #0E202F",
"G+	c #0E1C38",
"H+	c #0D1D3A",
"I+	c #10223B",
"J+	c #22313B",
"K+	c #000C11",
"L+	c #9D856D",
"M+	c #A68561",
"N+	c #A78869",
"O+	c #754833",
"P+	c #BE8D6E",
"Q+	c #EDC1A1",
"R+	c #FAD2B5",
"S+	c #DEBFA1",
"T+	c #A18379",
"U+	c #EDD1B1",
"V+	c #E4CBA8",
"W+	c #816F5F",
"X+	c #0E1221",
"Y+	c #030E22",
"Z+	c #142037",
"`+	c #101E3A",
" @	c #0C1C3D",
".@	c #0E1F42",
"+@	c #10223D",
"@@	c #102331",
"#@	c #040D10",
"$@	c #0D0000",
"%@	c #957B69",
"&@	c #A38266",
"*@	c #A88C6B",
"=@	c #784833",
"-@	c #CA9E7E",
";@	c #FFD2B0",
">@	c #FED3B7",
",@	c #AA9786",
"'@	c #DCC5AA",
")@	c #F5C89B",
"!@	c #D2A284",
"~@	c #473732",
"{@	c #0A080E",
"]@	c #161621",
"^@	c #282936",
"/@	c #181F33",
"(@	c #0E1C2F",
"_@	c #0D1A2B",
":@	c #0B1821",
"<@	c #0B0B08",
"[@	c #40311E",
"}@	c #8E735E",
"|@	c #A18167",
"1@	c #AD8A6B",
"2@	c #754831",
"3@	c #B78D70",
"4@	c #FFD8B3",
"5@	c #FED4AF",
"6@	c #AA9D88",
"7@	c #DDB89F",
"8@	c #F6B88F",
"9@	c #D5997A",
"0@	c #775C55",
"a@	c #110009",
"b@	c #C8AEA0",
"c@	c #C9AB9D",
"d@	c #AE9489",
"e@	c #2A241E",
"f@	c #020105",
"g@	c #392E1F",
"h@	c #89724E",
"i@	c #A98866",
"j@	c #AB8363",
"k@	c #AE8868",
"l@	c #BB8E74",
"m@	c #8F654A",
"n@	c #9E714B",
"o@	c #D7A680",
"p@	c #D1A993",
"q@	c #A07A6E",
"r@	c #DEA487",
"s@	c #E3A076",
"t@	c #D79C6E",
"u@	c #B98E64",
"v@	c #B18162",
"w@	c #F7BC97",
"x@	c #EEB289",
"y@	c #CE9F7C",
"z@	c #72574B",
"A@	c #372C2D",
"B@	c #6A5A47",
"C@	c #A08061",
"D@	c #B0886B",
"E@	c #B38A6D",
"F@	c #B0896B",
"G@	c #C19577",
"H@	c #9E7058",
"I@	c #754427",
"J@	c #AB7458",
"K@	c #B47360",
"L@	c #CE8F74",
"M@	c #DD9571",
"N@	c #DC9269",
"O@	c #DB9569",
"P@	c #DB9E6D",
"Q@	c #DB9671",
"R@	c #F2B085",
"S@	c #E6AE86",
"T@	c #A07A62",
"U@	c #5B3D37",
"V@	c #604845",
"W@	c #342105",
"X@	c #9C8569",
"Y@	c #A9876A",
"Z@	c #AF8A6D",
"`@	c #B18B6C",
" #	c #A88866",
".#	c #B28A6C",
"+#	c #A27760",
"@#	c #956350",
"##	c #753F2A",
"$#	c #834832",
"%#	c #814123",
"&#	c #C1795F",
"*#	c #D78D6C",
"=#	c #DF9870",
"-#	c #DA936D",
";#	c #DA9473",
">#	c #CE9171",
",#	c #7A5941",
"'#	c #251810",
")#	c #97826A",
"!#	c #AF9271",
"~#	c #AE8867",
"{#	c #B2886A",
"]#	c #A17B5A",
"^#	c #8E704B",
"/#	c #714C2D",
"(#	c #69442B",
"_#	c #744938",
":#	c #774738",
"<#	c #704431",
"[#	c #7C4937",
"}#	c #7C473A",
"|#	c #743D2A",
"1#	c #7C412A",
"2#	c #7C3F30",
"3#	c #804736",
"4#	c #74453A",
"5#	c #575647",
"6#	c #4C715D",
"7#	c #546357",
"8#	c #373E30",
"9#	c #8A7056",
"0#	c #B08B6B",
"a#	c #9B7051",
"b#	c #9D7857",
"c#	c #AE906D",
"d#	c #7D593C",
"e#	c #956F5B",
"f#	c #976E5D",
"g#	c #77473D",
"h#	c #854F46",
"i#	c #8A5450",
"j#	c #553A32",
"k#	c #47322E",
"l#	c #452728",
"m#	c #45262B",
"n#	c #432826",
"o#	c #452D2E",
"p#	c #3F543B",
"q#	c #4C8052",
"r#	c #4F6F4B",
"s#	c #607859",
"t#	c #5F6C59",
"u#	c #21130B",
"v#	c #836856",
"w#	c #AA7E6B",
"x#	c #A07E5D",
"y#	c #9F7B58",
"z#	c #B08B6F",
"A#	c #AB876E",
"B#	c #B18674",
"C#	c #7A4133",
"D#	c #934941",
"E#	c #935451",
"F#	c #311F1B",
"G#	c #100E0F",
"H#	c #30181F",
"I#	c #391C1E",
"J#	c #29130F",
"K#	c #171518",
"L#	c #1F4132",
"M#	c #477953",
"N#	c #50683F",
"O#	c #5C7149",
"P#	c #8FA989",
"Q#	c #2F190E",
"R#	c #AE8673",
"S#	c #9E7D5B",
"T#	c #946F4D",
"U#	c #AF8B6F",
"V#	c #AB866E",
"W#	c #B0886F",
"X#	c #734530",
"Y#	c #6B3C3B",
"Z#	c #281317",
"`#	c #07080A",
" $	c #4E1D1E",
".$	c #EA8582",
"+$	c #E0796C",
"@$	c #CD8A76",
"#$	c #1F0B05",
"$$	c #000D0F",
"%$	c #123623",
"&$	c #4E7B4C",
"*$	c #51834B",
"=$	c #5E815A",
"-$	c #2B1001",
";$	c #916E53",
">$	c #977652",
",$	c #AA8967",
"'$	c #AB8768",
")$	c #A78367",
"!$	c #937157",
"~$	c #472D1F",
"{$	c #27171E",
"]$	c #101B27",
"^$	c #010A12",
"/$	c #531311",
"($	c #E9655A",
"_$	c #E0584B",
":$	c #BE6353",
"<$	c #280904",
"[$	c #00030A",
"}$	c #00120B",
"|$	c #467554",
"1$	c #4A8156",
"2$	c #142F0F",
"3$	c #392A22",
"4$	c #805F4D",
"5$	c #926E4C",
"6$	c #937049",
"7$	c #90714F",
"8$	c #AA8667",
"9$	c #9B7757",
"0$	c #92745C",
"a$	c #36251B",
"b$	c #0C0A0D",
"c$	c #08151F",
"d$	c #010611",
"e$	c #2F0100",
"f$	c #9E433A",
"g$	c #A94844",
"h$	c #8F4C48",
"i$	c #160101",
"j$	c #050304",
"k$	c #000200",
"l$	c #243E30",
"m$	c #405745",
"n$	c #0F0D01",
"o$	c #765F4F",
"p$	c #8D6951",
"q$	c #8F6949",
"r$	c #936D48",
"s$	c #9E7B5A",
"t$	c #906C4D",
"u$	c #9D7859",
"v$	c #A98771",
"w$	c #876E62",
"x$	c #413730",
"y$	c #010502",
"z$	c #020100",
"A$	c #0C0205",
"B$	c #0C0202",
"C$	c #060202",
"D$	c #000201",
"E$	c #290E07",
"F$	c #866C5D",
"G$	c #755741",
"H$	c #6F482C",
"I$	c #956C52",
"J$	c #A0775B",
"K$	c #AC8A67",
"L$	c #9C7859",
"M$	c #927356",
"N$	c #A18D72",
"O$	c #635844",
"P$	c #020403",
"Q$	c #000001",
"R$	c #080504",
"S$	c #060000",
"T$	c #040001",
"U$	c #020101",
"V$	c #030804",
"W$	c #403D31",
"X$	c #7C6E5A",
"Y$	c #73563D",
"Z$	c #825C42",
"`$	c #936C50",
" %	c #A87E68",
".%	c #AC866B",
"+%	c #AA8964",
"@%	c #9E7A5B",
"#%	c #A07D5D",
"$%	c #A0846C",
"%%	c #715948",
"&%	c #5A3A27",
"*%	c #55372C",
"=%	c #110E0F",
"-%	c #051016",
";%	c #071316",
">%	c #0B2518",
",%	c #343C33",
"'%	c #1B1214",
")%	c #030000",
"!%	c #655145",
"~%	c #83644E",
"{%	c #845E40",
"]%	c #906B4B",
"^%	c #A27D63",
"/%	c #A88068",
"(%	c #AF886C",
"_%	c #A88665",
":%	c #906C4B",
"<%	c #A78463",
"[%	c #AB866F",
"}%	c #4C261B",
"|%	c #4E271B",
"1%	c #7E5E59",
"2%	c #2C2327",
"3%	c #141C24",
"4%	c #122427",
"5%	c #43574D",
"6%	c #636C60",
"7%	c #554D48",
"8%	c #3E302E",
"9%	c #110000",
"0%	c #6F5441",
"a%	c #795439",
"b%	c #9A7451",
"c%	c #A88260",
"d%	c #AE8A6B",
"e%	c #AF886A",
"f%	c #AA8564",
"g%	c #AD8C68",
"h%	c #AE8A69",
"i%	c #AE8B69",
"j%	c #B1886B",
"k%	c #B2866E",
"l%	c #765747",
"m%	c #090000",
"n%	c #020104",
"o%	c #000304",
"p%	c #050000",
"q%	c #504133",
"r%	c #AE967F",
"s%	c #8C7157",
"t%	c #967657",
"u%	c #B38E6D",
"v%	c #AA8561",
"w%	c #AC8B66",
"x%	c #AE8966",
"y%	c #AD8A66",
"z%	c #AB8766",
"A%	c #AD8C69",
"B%	c #A88864",
"C%	c #AC8F6C",
"D%	c #A78C6E",
"E%	c #8F7764",
"F%	c #7B6455",
"G%	c #736256",
"H%	c #8D7D70",
"I%	c #8B7A6A",
"J%	c #84705D",
"K%	c #927A65",
"L%	c #A0856D",
"M%	c #9F8268",
"N%	c #A38567",
"O%	c #A48061",
"P%	c #AD8767",
"Q%	c #AD8866",
"R%	c #AD8A68",
"S%	c #AC8867",
"T%	c #AC8A6A",
". + @ # $ % & * = - ; > , ' ) ! ~ { ] ^ / ( ",
"_ : < [ } | 1 2 3 4 5 6 7 8 9 0 a b c d e f ",
"g h i j k l m n o p q r s t u v w x y z A B ",
"C D E F G H I J K L M N O P Q R S T U V W X ",
"Y Z `  ...+.@.#.$.%.&.*.=.-.;.>.,.'.).!.~.{.",
"].^./.(._.:.<.[.}.|.1.2.3.4.5.6.7.8.9.0.a.b.",
"c.d.e.f.g.h.i.j.k.l.m.n.o.p.q.r.s.t.u.v.w.x.",
"y.z.A.B.C.D.E.F.G.H.I.J.K.L.M.N.O.P.Q.R.S.T.",
"U.V.W.X.Y.Z.`. +.+++@+#+$+%+&+*+=+-+;+>+,+'+",
")+!+~+{+]+^+/+(+_+:+<+[+}+|+1+2+3+4+5+6+7+8+",
"9+0+a+b+c+d+e+f+g+h+i+j+k+l+m+n+o+p+;+q+r+s+",
"t+u+v+w+x+y+z+A+B+C+D+E+F+G+H+I+J+K+;+L+M+N+",
"O+P+Q+R+S+T+U+V+W+X+Y+Z+`+ @.@+@@@#@$@%@&@*@",
"=@-@;@>@,@;+'@)@!@~@{@]@^@/@(@_@:@<@[@}@|@1@",
"2@3@4@5@6@;+7@8@9@0@a@b@c@d@e@;+f@g@h@i@j@k@",
"l@m@n@o@p@q@r@s@t@u@v@w@x@y@z@A@;+B@C@D@E@F@",
"G@H@I@J@K@L@M@N@O@P@Q@R@S@T@U@V@W@X@Y@Z@`@ #",
".#+#@###$#%#&#*#=#-#;#>#,#;+;+'#)#!#~#{#]#^#",
"/#(#_#:#<#[#}#|#1#2#3#4#5#6#7#8#;+9#0#a#b#c#",
"d#e#f#g#h#i#j#k#l#m#n#o#p#q#r#s#t#u#v#w#x#y#",
"z#A#B#C#D#E#F#G#H#I#J#K#L#M#N#O#P#;+Q#R#S#T#",
"U#V#W#X#Y#Z#`# $.$+$@$#$$$%$&$*$=$;+-$;$>$,$",
"'$)$!$~${$]$^$/$($_$:$<$[$}$|$1$2$3$4$5$6$7$",
"8$9$0$a$b$c$d$e$f$g$h$i$j$k$l$m$n$o$p$q$r$s$",
"t$u$v$w$x$y$z$A$;+;+;+B$C$D$;+E$F$G$H$I$J$K$",
"8$L$M$N$O$;+P$Q$R$S$S$T$U$V$W$X$Y$Z$`$ %.%+%",
"@%#%$%%%&%*%=%-%;%>%,%'%)%)%!%~%{%]%^%/%(%_%",
":%<%[%}%|%1%2%3%4%5%6%7%8%9%0%a%b%c%d%e%f%g%",
"h%i%j%k%l%;+m%n%o%;+;+p%q%r%s%t%u%v%w%x%y%w%",
"z%A%B%C%D%E%F%G%H%I%J%K%L%M%N%O%P%Q%K$R%S%T%"};
