/* XPM */
static char * pr_22_30_xpm[] = {
"22 30 644 2",
"  	c #C69C83",
". 	c #BE947E",
"+ 	c #B08975",
"@ 	c #A47F6C",
"# 	c #A07C6A",
"$ 	c #9F7D6F",
"% 	c #926F62",
"& 	c #BC9B95",
"* 	c #F9D6D3",
"= 	c #654640",
"- 	c #957974",
"; 	c #AE918C",
"> 	c #7E625A",
", 	c #71584E",
"' 	c #8C7366",
") 	c #907467",
"! 	c #866859",
"~ 	c #886855",
"{ 	c #906C59",
"] 	c #946D59",
"^ 	c #996E59",
"/ 	c #A0735B",
"( 	c #C39683",
"_ 	c #AC8172",
": 	c #A37D74",
"< 	c #AF8D89",
"[ 	c #B59597",
"} 	c #8A6E6F",
"| 	c #633E47",
"1 	c #AB969C",
"2 	c #FFF1F7",
"3 	c #E7D4E4",
"4 	c #9F8A95",
"5 	c #502E2B",
"6 	c #4C3133",
"7 	c #39170C",
"8 	c #3A0A00",
"9 	c #604D42",
"0 	c #827367",
"a 	c #917E70",
"b 	c #7E6454",
"c 	c #91705D",
"d 	c #AB8470",
"e 	c #B78B77",
"f 	c #BA8C7D",
"g 	c #AD857C",
"h 	c #A27F7C",
"i 	c #997A7E",
"j 	c #8D727B",
"k 	c #6A556A",
"l 	c #968A9C",
"m 	c #D0C6D5",
"n 	c #F5ECFB",
"o 	c #FFF0FF",
"p 	c #BFB6C7",
"q 	c #858A92",
"r 	c #999FA3",
"s 	c #9BA7A4",
"t 	c #9BAAA3",
"u 	c #8E9990",
"v 	c #7D7E72",
"w 	c #786E62",
"x 	c #6A5A4B",
"y 	c #9C8373",
"z 	c #BB9988",
"A 	c #BC9280",
"B 	c #AD8475",
"C 	c #B38F86",
"D 	c #A48583",
"E 	c #7D676D",
"F 	c #58525B",
"G 	c #827B93",
"H 	c #D5D0E1",
"I 	c #F5F1FF",
"J 	c #DBD5E8",
"K 	c #E1DDEA",
"L 	c #E1E3ED",
"M 	c #E1E9EF",
"N 	c #E4F1F0",
"O 	c #E7FBF4",
"P 	c #F0FFFA",
"Q 	c #D1E3D6",
"R 	c #8C9988",
"S 	c #424734",
"T 	c #5A5140",
"U 	c #9F897C",
"V 	c #BB9C8F",
"W 	c #B38C7E",
"X 	c #A88774",
"Y 	c #886B5C",
"Z 	c #907B77",
"` 	c #BAABAF",
" .	c #D9D3DC",
"..	c #DBDCEE",
"+.	c #D0D6E9",
"@.	c #CED7E3",
"#.	c #E0E9EA",
"$.	c #E5F4EB",
"%.	c #EEFCF6",
"&.	c #F1FFFA",
"*.	c #ECFFF5",
"=.	c #E3FFEE",
"-.	c #EBFFF2",
";.	c #DFF5E1",
">.	c #B7CDB3",
",.	c #6C775F",
"'.	c #504D39",
").	c #685647",
"!.	c #957A6E",
"~.	c #B8958B",
"{.	c #8D725C",
"].	c #A28D7C",
"^.	c #CFC3BB",
"/.	c #EDE7E6",
"(.	c #DBDCE2",
"_.	c #D8E1ED",
":.	c #D8E7F3",
"<.	c #DAEEF1",
"[.	c #DEF6E8",
"}.	c #DCF8E1",
"|.	c #DFFCE4",
"1.	c #DEFFE5",
"2.	c #D5FADE",
"3.	c #BEE5C6",
"4.	c #B4D8BB",
"5.	c #C4E4C6",
"6.	c #D4EFD0",
"7.	c #CADBBF",
"8.	c #919680",
"9.	c #504A36",
"0.	c #856E65",
"a.	c #D1B3A9",
"b.	c #836C54",
"c.	c #A1917D",
"d.	c #BEB6AB",
"e.	c #CCCCC7",
"f.	c #C2CCCC",
"g.	c #D1E3EA",
"h.	c #E0F8FD",
"i.	c #DAF6F2",
"j.	c #B9DAC2",
"k.	c #B8DEBD",
"l.	c #C1EBC6",
"m.	c #C4F3CC",
"n.	c #BBEDC4",
"o.	c #A4D5AC",
"p.	c #94C59B",
"q.	c #A3CCA4",
"r.	c #C6E5C1",
"s.	c #E5FAD9",
"t.	c #D0D8BD",
"u.	c #82846F",
"v.	c #7E6B60",
"w.	c #D5BCB0",
"x.	c #968369",
"y.	c #918670",
"z.	c #787462",
"A.	c #6D756B",
"B.	c #A7B7B2",
"C.	c #CAE3E5",
"D.	c #D4F2F3",
"E.	c #BADCD4",
"F.	c #749E7F",
"G.	c #86B48D",
"H.	c #9CCCA3",
"I.	c #A4D6AC",
"J.	c #9FD2A7",
"K.	c #96C99E",
"L.	c #91C195",
"M.	c #88B387",
"N.	c #9CBD95",
"O.	c #D0E8C4",
"P.	c #E2EBCD",
"Q.	c #A2A48C",
"R.	c #7E6E5E",
"S.	c #C3AEA0",
"T.	c #B3A285",
"U.	c #978B73",
"V.	c #5C5541",
"W.	c #3F4842",
"X.	c #9DAEA6",
"Y.	c #B7D2CF",
"Z.	c #A0C0BC",
"`.	c #678B82",
" +	c #3A6245",
".+	c #76A17E",
"++	c #79A680",
"@+	c #709E76",
"#+	c #709F75",
"$+	c #7CAB81",
"%+	c #7CA77D",
"&+	c #799E74",
"*+	c #7D9A72",
"=+	c #90A57F",
"-+	c #AAB491",
";+	c #8E9072",
">+	c #82755F",
",+	c #A3917D",
"'+	c #A59173",
")+	c #A2947A",
"!+	c #7A725E",
"~+	c #3A4237",
"{+	c #77857B",
"]+	c #93AAA6",
"^+	c #6E8381",
"/+	c #002317",
"(+	c #21432F",
"_+	c #608369",
":+	c #577B60",
"<+	c #4A6E51",
"[+	c #5D8161",
"}+	c #87AA88",
"|+	c #84A681",
"1+	c #8FAB86",
"2+	c #97AC88",
"3+	c #83936D",
"4+	c #848967",
"5+	c #737150",
"6+	c #807356",
"7+	c #A59276",
"8+	c #967C60",
"9+	c #AE9B82",
"0+	c #968A74",
"a+	c #474838",
"b+	c #424A41",
"c+	c #566662",
"d+	c #3C4947",
"e+	c #000000",
"f+	c #173225",
"g+	c #344D3D",
"h+	c #334A38",
"i+	c #223F28",
"j+	c #4C654C",
"k+	c #A1B59A",
"l+	c #C2D1B3",
"m+	c #CDD7B9",
"n+	c #CAD1B2",
"o+	c #C0C1A0",
"p+	c #9A9675",
"q+	c #655E3D",
"r+	c #7A6A4C",
"s+	c #B7A281",
"t+	c #A8866C",
"u+	c #BBA189",
"v+	c #A08E79",
"w+	c #4B4231",
"x+	c #050000",
"y+	c #101E17",
"z+	c #26332D",
"A+	c #252F25",
"B+	c #000200",
"C+	c #343629",
"D+	c #767566",
"E+	c #C2C3AF",
"F+	c #D1D3BA",
"G+	c #D4D2B8",
"H+	c #DCD5BA",
"I+	c #EBE0C1",
"J+	c #C1B293",
"K+	c #77674B",
"L+	c #715C3F",
"M+	c #B79F7C",
"N+	c #CBA289",
"O+	c #C4A18B",
"P+	c #A18673",
"Q+	c #604B3F",
"R+	c #382C22",
"S+	c #211D17",
"T+	c #1E201B",
"U+	c #3E3A35",
"V+	c #605751",
"W+	c #6A5D57",
"X+	c #2C2020",
"Y+	c #5D534B",
"Z+	c #B2A295",
"`+	c #E0CEBE",
" @	c #9E8B7A",
".@	c #8F7760",
"+@	c #CAB199",
"@@	c #F7DDC1",
"#@	c #DAC0A2",
"$@	c #937B60",
"%@	c #6D502E",
"&@	c #A18361",
"*@	c #B68970",
"=@	c #C29A84",
"-@	c #CAA996",
";@	c #B89D8F",
">@	c #574439",
",@	c #0E0000",
"'@	c #150E05",
")@	c #786C67",
"!@	c #C4B1AA",
"~@	c #E3C8C1",
"{@	c #877471",
"]@	c #573D34",
"^@	c #C5A396",
"/@	c #F1CDBE",
"(@	c #937366",
"_@	c #96725F",
":@	c #E4BEA8",
"<@	c #FFDEC4",
"[@	c #DFBBA0",
"}@	c #95745A",
"|@	c #7C5B3D",
"1@	c #B99778",
"2@	c #C19077",
"3@	c #C0947C",
"4@	c #CAA591",
"5@	c #C4A695",
"6@	c #735C4F",
"7@	c #3E2D23",
"8@	c #483A32",
"9@	c #948076",
"0@	c #DDC0B3",
"a@	c #F9D7C8",
"b@	c #C8A395",
"c@	c #A57969",
"d@	c #C79988",
"e@	c #E5B3A3",
"f@	c #D19E8E",
"g@	c #D39E8B",
"h@	c #DEAB96",
"i@	c #D3A791",
"j@	c #AD846D",
"k@	c #9F785F",
"l@	c #AD866E",
"m@	c #C09980",
"n@	c #C28F76",
"o@	c #B78970",
"p@	c #C19B85",
"q@	c #C7A794",
"r@	c #998272",
"s@	c #635145",
"t@	c #4C3D34",
"u@	c #7D675C",
"v@	c #BB9B8B",
"w@	c #EAC4AF",
"x@	c #E5B7A2",
"y@	c #D29E8A",
"z@	c #CD9682",
"A@	c #DDA18F",
"B@	c #E1A592",
"C@	c #D29784",
"D@	c #B67D6A",
"E@	c #9C634D",
"F@	c #96624B",
"G@	c #B1846E",
"H@	c #C29781",
"I@	c #BF9580",
"J@	c #B6856B",
"K@	c #B1846A",
"L@	c #BB977F",
"M@	c #C4A691",
"N@	c #AC9583",
"O@	c #706052",
"P@	c #392F22",
"Q@	c #352006",
"R@	c #674830",
"S@	c #C59D85",
"T@	c #DAAB94",
"U@	c #D8A38E",
"V@	c #D19784",
"W@	c #DA9B89",
"X@	c #BB7A68",
"Y@	c #965540",
"Z@	c #844530",
"`@	c #965C48",
" #	c #BA8570",
".#	c #C4927E",
"+#	c #BF917D",
"@#	c #B68B78",
"##	c #C79A7D",
"$#	c #C7A084",
"%#	c #B5967A",
"&#	c #90795E",
"*#	c #65563E",
"=#	c #3E3620",
"-#	c #5B5645",
";#	c #7A6F5B",
">#	c #866E57",
",#	c #92705A",
"'#	c #916753",
")#	c #A37260",
"!#	c #BA8371",
"~#	c #AD705E",
"{#	c #874837",
"]#	c #945544",
"^#	c #B47663",
"/#	c #BE8470",
"(#	c #CD9984",
"_#	c #CC9C86",
":#	c #B88D76",
"<#	c #99705B",
"[#	c #B99374",
"}#	c #B59475",
"|#	c #957D5F",
"1#	c #5F5032",
"2#	c #564F30",
"3#	c #64654D",
"4#	c #7D8069",
"5#	c #8F8C76",
"6#	c #90806D",
"7#	c #664D3C",
"8#	c #56301B",
"9#	c #5C3525",
"0#	c #6A4134",
"a#	c #7A4133",
"b#	c #8D4F41",
"c#	c #965748",
"d#	c #A86D5C",
"e#	c #CA927E",
"f#	c #BE8C76",
"g#	c #B88C74",
"h#	c #B58D74",
"i#	c #B28D73",
"j#	c #B29471",
"k#	c #A9916D",
"l#	c #827250",
"m#	c #45431B",
"n#	c #616544",
"o#	c #849171",
"p#	c #7F8C70",
"q#	c #767965",
"r#	c #7E7567",
"s#	c #403128",
"t#	c #442621",
"u#	c #51312F",
"v#	c #4D2526",
"w#	c #5A211C",
"x#	c #7A4238",
"y#	c #82473B",
"z#	c #915B4B",
"A#	c #B88470",
"B#	c #B88B73",
"C#	c #AA8267",
"D#	c #A68365",
"E#	c #B49373",
"F#	c #B19873",
"G#	c #AA9871",
"H#	c #897F5A",
"I#	c #555731",
"J#	c #616B48",
"K#	c #8A9D79",
"L#	c #76896A",
"M#	c #4B5844",
"N#	c #4E4F47",
"O#	c #181413",
"P#	c #645051",
"Q#	c #86696A",
"R#	c #845F60",
"S#	c #592C2C",
"T#	c #460708",
"U#	c #5C271F",
"V#	c #7B483A",
"W#	c #936450",
"X#	c #B38B72",
"Y#	c #A58164",
"Z#	c #977753",
"`#	c #A2855D",
" $	c #A68D69",
".$	c #AB9874",
"+$	c #9C916C",
"@$	c #74724D",
"#$	c #444825",
"$$	c #677451",
"%$	c #7C8A6C",
"&$	c #6C7762",
"*$	c #837478",
"=$	c #A89195",
"-$	c #9C7E82",
";$	c #5D383A",
">$	c #3B0B0A",
",$	c #461911",
"'$	c #62372A",
")$	c #7B5240",
"!$	c #8C674F",
"~$	c #997759",
"{$	c #9E7E5B",
"]$	c #9B7B55",
"^$	c #AE9273",
"/$	c #B69E7E",
"($	c #B8A383",
"_$	c #A89777",
":$	c #796B4D",
"<$	c #5B5435",
"[$	c #57543C",
"}$	c #4C4A3A",
"|$	c #64575A",
"1$	c #837073",
"2$	c #7A6566",
"3$	c #3A2121",
"4$	c #310E0A",
"5$	c #35110B",
"6$	c #411C0F",
"7$	c #5C3827",
"8$	c #7C5844",
"9$	c #8D6A50",
"0$	c #987457",
"a$	c #A07A5B",
"b$	c #BA9A7D",
"c$	c #B7997D",
"d$	c #B59A7C",
"e$	c #AE9577",
"f$	c #998063",
"g$	c #775E43",
"h$	c #553E24",
"i$	c #36220D",
"j$	c #0A0000",
"k$	c #352B2E",
"l$	c #483C3E",
"m$	c #453838",
"n$	c #22100D",
"o$	c #1C0201",
"p$	c #351C16",
"q$	c #5A4036",
"r$	c #7F6356",
"s$	c #866553",
"t$	c #8A6650",
"u$	c #956E55",
"v$	c #A4795F",
"w$	c #BD9A7E",
"x$	c #B29175",
"y$	c #A7886C",
"z$	c #A48569",
"A$	c #AA8B6F",
"B$	c #9A7D62",
"C$	c #7B6149",
"D$	c #4D3827",
"E$	c #080000",
"F$	c #1E0B07",
"G$	c #442E26",
"H$	c #785C50",
"I$	c #987A6C",
"J$	c #92705E",
"K$	c #916C58",
"L$	c #9C745E",
"M$	c #AB7F67",
"N$	c #B29074",
"O$	c #AE8E71",
"P$	c #A5866A",
"Q$	c #A18367",
"R$	c #B09276",
"S$	c #B49579",
"T$	c #A0846B",
"U$	c #735D4A",
"V$	c #2C1F1D",
"W$	c #2B1E1B",
"X$	c #281914",
"Y$	c #2B1812",
"Z$	c #1B0702",
"`$	c #120000",
" %	c #574036",
".%	c #7D6053",
"+%	c #866656",
"@%	c #906E5B",
"#%	c #9F7A64",
"$%	c #AE876F",
"%%	c #BA8F76",
"&%	c #B59276",
"*%	c #A8886C",
"=%	c #A08266",
"-%	c #A7896D",
";%	c #B29377",
">%	c #B2967C",
",%	c #8F7965",
"'%	c #86746E",
")%	c #9E8B84",
"!%	c #8C7872",
"~%	c #573F37",
"{%	c #41291E",
"]%	c #6B5346",
"^%	c #705547",
"/%	c #5B3D2E",
"(%	c #51311F",
"_%	c #92705C",
":%	c #AE8A73",
"<%	c #BD957E",
"[%	c #C59A81",
"}%	c #B79478",
"|%	c #AC8A6E",
"1%	c #A48367",
"2%	c #A6866A",
"3%	c #AD8F72",
"4%	c #B39578",
"5%	c #B79A80",
"6%	c #A38974",
"7%	c #624C41",
"8%	c #5D4F4B",
"9%	c #6A5B57",
"0%	c #5D4E4A",
"a%	c #240809",
"b%	c #3A2622",
"c%	c #52362A",
"d%	c #6C4E3A",
"e%	c #90735F",
"f%	c #AD8C74",
"g%	c #B7937B",
"h%	c #BC957C",
"i%	c #C0977E",
"j%	c #B08C71",
"k%	c #A48165",
"l%	c #A68468",
"m%	c #B49276",
"n%	c #B9997C",
"o%	c #B69679",
"p%	c #B7987E",
"q%	c #B1947E",
"r%	c #977C6B",
"s%	c #5F4C3F",
"t%	c #564133",
"u%	c #614C3F",
"v%	c #675447",
"w%	c #685447",
"x%	c #5F4B3E",
"y%	c #735948",
"z%	c #987963",
"A%	c #B8977F",
"B%	c #BD9B82",
"C%	c #BB977D",
"D%	c #B99378",
"E%	c #B99277",
"F%	c #A17C61",
"G%	c #9F7B60",
"H%	c #B08D71",
"I%	c #C3A084",
"J%	c #C2A084",
"K%	c #B69478",
"L%	c #B7957B",
"M%	c #BA9B83",
"N%	c #B59984",
"O%	c #A38874",
"P%	c #A58876",
"Q%	c #AD907D",
"R%	c #B39681",
"S%	c #B4947F",
"T%	c #AD8F77",
"U%	c #B1927A",
"V%	c #B99981",
"W%	c #BD9A81",
"X%	c #BD9980",
"Y%	c #BC987D",
"Z%	c #BA9579",
"`%	c #B79275",
"  . + @ # $ % & * = - ; > , ' ) ! ~ { ] ^ / ",
"( _ : < [ } | 1 2 3 4 5 6 7 8 9 0 a b c d e ",
"f g h i j k l m n o p q r s t u v w x y z A ",
"B C D E F G H I J K L M N O P Q R S T U V W ",
"X Y Z `  ...+.@.#.$.%.&.*.=.-.;.>.,.'.).!.~.",
"{.].^./.(._.:.<.[.}.|.1.2.3.4.5.6.7.8.9.0.a.",
"b.c.d.e.f.g.h.i.j.k.l.m.n.o.p.q.r.s.t.u.v.w.",
"x.y.z.A.B.C.D.E.F.G.H.I.J.K.L.M.N.O.P.Q.R.S.",
"T.U.V.W.X.Y.Z.`. +.+++@+#+$+%+&+*+=+-+;+>+,+",
"'+)+!+~+{+]+^+/+(+_+:+<+[+}+|+1+2+3+4+5+6+7+",
"8+9+0+a+b+c+d+e+f+g+h+i+j+k+l+m+n+o+p+q+r+s+",
"t+u+v+w+x+e+y+z+A+e+B+C+D+E+F+G+H+I+J+K+L+M+",
"N+O+P+Q+R+S+T+U+V+W+X+Y+Z+`+ @.@+@@@#@$@%@&@",
"*@=@-@;@>@,@'@)@!@~@{@]@^@/@(@_@:@<@[@}@|@1@",
"2@3@4@5@6@7@8@9@0@a@b@c@d@e@f@g@h@i@j@k@l@m@",
"n@o@p@q@r@s@t@u@v@w@x@y@z@A@B@C@D@E@F@G@H@I@",
"J@K@L@M@N@O@P@Q@R@S@T@U@V@W@X@Y@Z@`@ #.#+#@#",
"##$#%#&#*#=#-#;#>#,#'#)#!#~#{#]#^#/#(#_#:#<#",
"[#}#|#1#2#3#4#5#6#7#8#9#0#a#b#c#d#e#f#g#h#i#",
"j#k#l#m#n#o#p#q#r#s#t#u#v#w#x#y#z#A#B#C#D#E#",
"F#G#H#I#J#K#L#M#N#O#P#Q#R#S#T#U#V#W#X#Y#Z#`#",
" $.$+$@$#$$$%$&$e+e+*$=$-$;$>$,$'$)$!$~${$]$",
"^$/$($_$:$<$[$}$e+e+|$1$2$3$4$5$6$7$8$9$0$a$",
"b$c$d$e$f$g$h$i$j$e+k$l$m$n$o$p$q$r$s$t$u$v$",
"w$x$y$z$A$B$C$D$E$e+e+e+e+F$e+G$H$I$J$K$L$M$",
"N$O$P$Q$R$S$T$U$e+V$W$X$Y$Z$`$ %.%+%@%#%$%%%",
"&%N$*%=%-%;%>%,%e+'%)%!%~%{%]%^%/%(%_%:%<%[%",
"}%|%1%2%3%4%5%6%7%8%9%0%a%e+b%c%d%e%f%g%h%i%",
"j%k%l%m%n%o%p%q%r%s%t%u%v%w%x%y%z%A%B%C%D%E%",
"F%G%H%I%J%K%L%M%N%O%P%Q%R%S%T%U%V%W%X%Y%Z%`%"};
