/* XPM */
static char * pu_21_30_xpm[] = {
"21 30 376 2",
"  	c #A88868",
". 	c #A68667",
"+ 	c #C2A274",
"@ 	c #C4A578",
"# 	c #002375",
"$ 	c #A28469",
"% 	c #A98968",
"& 	c #C0A073",
"* 	c #968277",
"= 	c #8C7F80",
"- 	c #D3D5DC",
"; 	c #807680",
"> 	c #7F6E70",
", 	c #AA8968",
"' 	c #A38265",
") 	c #98735D",
"! 	c #A78768",
"~ 	c #CDAC79",
"{ 	c #726A78",
"] 	c #566085",
"^ 	c #FFFFFF",
"/ 	c #646C8C",
"( 	c #5C5975",
"_ 	c #AB8A67",
": 	c #A07E63",
"< 	c #8E6456",
"[ 	c #A98969",
"} 	c #C09F72",
"| 	c #D0AF79",
"1 	c #00006E",
"2 	c #002D6F",
"3 	c #48537D",
"4 	c #FFFFFE",
"5 	c #E9EAEC",
"6 	c #000063",
"7 	c #002670",
"8 	c #00256F",
"9 	c #00246F",
"0 	c #00156E",
"a 	c #7C686A",
"b 	c #AC8A67",
"c 	c #AA8A69",
"d 	c #97715C",
"e 	c #8E6557",
"f 	c #8B6155",
"g 	c #A48466",
"h 	c #A98868",
"i 	c #847272",
"j 	c #5E5A75",
"k 	c #CFD7E1",
"l 	c #CAD2DC",
"m 	c #CBD3DD",
"n 	c #DEE5EB",
"o 	c #DDE4EB",
"p 	c #DAE1E8",
"q 	c #C9D1DB",
"r 	c #D5DAE1",
"s 	c #E8E8EB",
"t 	c #E8E9EB",
"u 	c #AFAFB9",
"v 	c #515376",
"w 	c #976F58",
"x 	c #916A59",
"y 	c #916958",
"z 	c #A68567",
"A 	c #A88768",
"B 	c #806E70",
"C 	c #515072",
"D 	c #CFD7E0",
"E 	c #D5DDE5",
"F 	c #D8E0E8",
"G 	c #DEE4EB",
"H 	c #E7EBEF",
"I 	c #F9F8F8",
"J 	c #F9F9F9",
"K 	c #C1C3CC",
"L 	c #737B96",
"M 	c #886258",
"N 	c #906B5C",
"O 	c #956E5B",
"P 	c #A98A69",
"Q 	c #AD8B67",
"R 	c #B28F66",
"S 	c #000053",
"T 	c #BDC5D1",
"U 	c #DAE2E9",
"V 	c #FEFCFB",
"W 	c #FBFBFA",
"X 	c #FBFAFA",
"Y 	c #FAF9F9",
"Z 	c #FAFAF9",
"` 	c #F8F8F8",
" .	c #000054",
"..	c #937969",
"+.	c #AE8C67",
"@.	c #776872",
"#.	c #2C3F74",
"$.	c #DFE7EE",
"%.	c #DFE5EB",
"&.	c #EDF0F3",
"*.	c #D5DEE6",
"=.	c #D8E1E9",
"-.	c #848DA4",
";.	c #3F4B78",
">.	c #746363",
",.	c #192C5A",
"'.	c #DCE3EA",
").	c #EEF0F3",
"!.	c #EDEFF2",
"~.	c #E6EAEF",
"{.	c #D6DFE7",
"].	c #D9E2EA",
"^.	c #81899A",
"/.	c #333C60",
"(.	c #A48062",
"_.	c #A78767",
":.	c #705942",
"<.	c #000000",
"[.	c #E5EEF6",
"}.	c #D9E1EA",
"|.	c #D7E0E8",
"1.	c #D7DFE7",
"2.	c #E1EAF2",
"3.	c #808589",
"4.	c #130800",
"5.	c #916658",
"6.	c #6E5943",
"7.	c #BDC5CD",
"8.	c #DAE2EA",
"9.	c #D9E1E9",
"0.	c #DCE4EC",
"a.	c #010904",
"b.	c #B1916E",
"c.	c #926B5A",
"d.	c #8C6352",
"e.	c #A26D56",
"f.	c #B1755A",
"g.	c #BFC6CE",
"h.	c #D4DCE4",
"i.	c #7E848D",
"j.	c #D2DAE2",
"k.	c #858C95",
"l.	c #B9C1C9",
"m.	c #95634E",
"n.	c #AE7359",
"o.	c #896050",
"p.	c #9D7A60",
"q.	c #763E3F",
"r.	c #B87760",
"s.	c #DA9171",
"t.	c #BFC6CD",
"u.	c #CED6DE",
"v.	c #DEE7EF",
"w.	c #A3AAB2",
"x.	c #B97A5F",
"y.	c #D68F6F",
"z.	c #692C38",
"A.	c #A28163",
"B.	c #73373C",
"C.	c #BA7860",
"D.	c #DD9473",
"E.	c #6B303B",
"F.	c #1F293E",
"G.	c #5A616C",
"H.	c #E1E9F2",
"I.	c #DDE5ED",
"J.	c #B3BAC2",
"K.	c #17253C",
"L.	c #000016",
"M.	c #763B40",
"N.	c #C48066",
"O.	c #D99171",
"P.	c #651F34",
"Q.	c #A28063",
"R.	c #966855",
"S.	c #8A5149",
"T.	c #D18B6C",
"U.	c #CA866A",
"V.	c #C38267",
"W.	c #030712",
"X.	c #272A2F",
"Y.	c #5D6164",
"Z.	c #5B5F62",
"`.	c #4A4D51",
" +	c #00000B",
".+	c #00000F",
"++	c #97644F",
"@+	c #C9866A",
"#+	c #CF896B",
"$+	c #A36655",
"%+	c #8D544B",
"&+	c #A38264",
"*+	c #A88968",
"=+	c #936C57",
"-+	c #7E4F47",
";+	c #D18A6C",
">+	c #D58E6F",
",+	c #D38D6D",
"'+	c #482C20",
")+	c #684E39",
"!+	c #69503A",
"~+	c #6A513B",
"{+	c #583729",
"]+	c #AC7258",
"^+	c #D99170",
"/+	c #CE886B",
"(+	c #9D6554",
"_+	c #825249",
":+	c #AA8B6A",
"<+	c #AB8B6A",
"[+	c #692537",
"}+	c #CC866A",
"|+	c #DF9574",
"1+	c #DC9373",
"2+	c #FFC594",
"3+	c #FFC997",
"4+	c #FFCC99",
"5+	c #DC9473",
"6+	c #DE9674",
"7+	c #E29775",
"8+	c #652637",
"9+	c #9D795F",
"0+	c #AA8969",
"a+	c #320A0A",
"b+	c #C94242",
"c+	c #824040",
"d+	c #784040",
"e+	c #714040",
"f+	c #C44040",
"g+	c #882B2B",
"h+	c #8F7458",
"i+	c #C4A476",
"j+	c #96795C",
"k+	c #876E53",
"l+	c #8E5B46",
"m+	c #48302D",
"n+	c #291523",
"o+	c #A3383F",
"p+	c #683333",
"q+	c #603232",
"r+	c #5A3231",
"s+	c #9F373E",
"t+	c #6E2730",
"u+	c #00051E",
"v+	c #905D47",
"w+	c #89684F",
"x+	c #896F54",
"y+	c #B79770",
"z+	c #BC9C72",
"A+	c #AC8C6B",
"B+	c #645942",
"C+	c #E99C79",
"D+	c #76524D",
"E+	c #10213A",
"F+	c #00233C",
"G+	c #00233B",
"H+	c #05213A",
"I+	c #000F37",
"J+	c #E89B78",
"K+	c #72503C",
"L+	c #D5B480",
"M+	c #AE8F6B",
"N+	c #70363C",
"O+	c #D55550",
"P+	c #FF645C",
"Q+	c #563239",
"R+	c #351617",
"S+	c #468C4E",
"T+	c #88AF8C",
"U+	c #D7E1D8",
"V+	c #40944B",
"W+	c #67363C",
"X+	c #E15953",
"Y+	c #FD625A",
"Z+	c #5A2535",
"`+	c #8A5F53",
" @	c #764040",
".@	c #B84946",
"+@	c #D84E4A",
"@@	c #A84040",
"#@	c #581D1D",
"$@	c #140606",
"%@	c #63172F",
"&@	c #63AE62",
"*@	c #78BE79",
"=@	c #B6DDB6",
"-@	c #B4DCB4",
";@	c #9DCF9E",
">@	c #61BA65",
",@	c #60192E",
"'@	c #422121",
")@	c #AD4242",
"!@	c #CB4A47",
"~@	c #D54D4A",
"{@	c #232237",
"]@	c #97765E",
"^@	c #774040",
"/@	c #A74040",
"(@	c #C04040",
"_@	c #C34141",
":@	c #641D1D",
"<@	c #1C0A0A",
"[@	c #7C2A3E",
"}@	c #71C06C",
"|@	c #70C870",
"1@	c #6FCE72",
"2@	c #792B3C",
"3@	c #542B2B",
"4@	c #C64242",
"5@	c #BE3F40",
"6@	c #000033",
"7@	c #9D7F63",
"8@	c #665841",
"9@	c #1C0B0B",
"0@	c #7E4544",
"a@	c #7A153B",
"b@	c #7A083A",
"c@	c #7A0039",
"d@	c #7B4342",
"e@	c #562C2C",
"f@	c #020000",
"g@	c #00002A",
"h@	c #001636",
"i@	c #B4916D",
"j@	c #A18263",
"k@	c #9D7F61",
"l@	c #060202",
"m@	c #2E000E",
"n@	c #4F814A",
"o@	c #52884E",
"p@	c #538C50",
"q@	c #2D000E",
"r@	c #1F0C0C",
"s@	c #856B53",
"t@	c #9C7F63",
"u@	c #AF8F6C",
"v@	c #281212",
"w@	c #2E1515",
"x@	c #3F7F46",
"y@	c #42864A",
"z@	c #458A4C",
"A@	c #210D0D",
"B@	c #301616",
"C@	c #8C7056",
"D@	c #A58466",
"E@	c #BE9E73",
"F@	c #CDAD7B",
"G@	c #6C3939",
"H@	c #773F3F",
"I@	c #582D2D",
"J@	c #7D4343",
"K@	c #795649",
"L@	c #8F6657",
"M@	c #693737",
"N@	c #6D3939",
"O@	c #492525",
"P@	c #794141",
"Q@	c #7A4141",
"R@	c #7A584A",
"S@	c #65523D",
"T@	c #633D36",
"U@	c #623B35",
"V@	c #6C5741",
"W@	c #6B5640",
"X@	c #674B3C",
"Y@	c #603132",
"Z@	c #603031",
"`@	c #6A5740",
" #	c #8E6D57",
".#	c #9A765F",
"+#	c #AC8B6B",
"@#	c #564533",
"##	c #4D3D2D",
"$#	c #AD8C6B",
"%#	c #8B7055",
"&#	c #AF8E6C",
"      . + @ # $ %                         ",
"      & * = - ; > ,   ' ) %               ",
"    ! ~ { ] ^ / ( _   : < [               ",
"! } | 1 2 3 4 4 5 6 7 8 9 0 a b c d e f g ",
"h i j k l m n o p q l r s t u v w x y z A ",
"% B C D E F G o o o o H I J K L M N O P   ",
"  Q R S T U V W X J J Y Z ` W ^  ...+.    ",
"% @.#.$.F F F F %.J ` &.*.Y ` J =.-.;.Q   ",
"% >.,.$.F F F F '.).!.~.{.).!.&.].^./.(._.",
"[ :.<.[.}.F F F F |.|.F F |.|.1.2.3.4.5.z ",
"c 6.<.<.7.F 8.F F F F F F 8.9.0.<.<.a.b.c.",
"d.e.f.<.g.h.i.j.F F F F 0.k.l.0.<.m.n.o.p.",
"q.r.s.<.t.j.<.u.F F F F v.<.w.0.<.x.y.z.A.",
"B.C.D.E.<.<.F.<.G.H.I.J.<.K.L.<.M.N.O.P.Q.",
"A.R.S.T.U.V.<.W.X.Y.Z.`. +.+++@+#+$+%+&+_.",
"*+=+-+;+>+,+'+)+!+!+!+!+~+{+]+^+/+(+_+:+  ",
"  [ <+[+}+|+1+2+3+3+3+3+4+5+6+7+8+9+c   . ",
"    0+<.<.a+b+c+d+d+d+d+e+f+g+<.<.h+  . i+",
"  j+k+l+m+n+o+p+q+q+q+q+r+s+t+u+v+w+x+y+z+",
"A+B+<.C+D+E+F+<.<.<.<.<.<.G+H+I+J+K+<.L+M+",
"N+O+P+Q+R+<.<.S+T+^ ^ U+V+<.<.<.W+X+Y+Z+`+",
" @.@+@@@#@$@%@&@*@=@-@;@>@,@'@<.)@!@~@{@]@",
"^@/@(@_@:@<@[@}@|@|@|@|@1@2@3@<.4@(@5@6@7@",
"A+8@<.<.<.9@0@a@b@b@b@b@c@d@e@f@<.g@h@i@% ",
"  j@k@<.<.l@m@n@o@o@o@o@p@q@r@<.<.s@t@%   ",
"  <+u@<.v@w@<.x@y@y@y@y@z@<.A@B@<.C@D@g A ",
"! E@F@<.G@H@<.<.<.<.<.<.<.<.I@J@<.K@L@f g ",
"    0+<.M@d+d+d+N@<.<.O@P@d+d+Q@<.R@y c   ",
"    [ S@T@q+q+q+U@V@W@X@Y@q+q+Z@`@ #.#[   ",
"      +#@#<.<.<.##$#[ %#<.<.<.<.&#%       "};
