/* XPM */
static char * ea_xpm[] = {
"64 64 3 1",
" 	c #3A363A",
".	c #ED05DC",
"+	c #CCC3E8",
"                                                                ",
"                                                                ",
"                                                                ",
"    ...................                                         ",
"   ..........................................................   ",
"   ..........................................................   ",
"   ..........................................................   ",
"   ..........................................................   ",
"   ..........................................................   ",
"   ..........................................................   ",
"   .....................+++..................................   ",
"   .........++++++++++++++++.................................   ",
"   ........+++++++++++++++++.................................   ",
"   ......+++++++++++++++++++......++++++++++.................   ",
"   .....++++++++++++++++++++....++++++++++++++++.............   ",
"   .....+++++++++++++++++++....++++++++++++++++++............   ",
"   ....+++++++.................++++++++++++++++++............   ",
"   ....++++++..................++++++++++++++++++............   ",
"   ....++++++..................++++++.....++++++++...........   ",
"   ....++++++..................+++++........++++++...........   ",
"   .....+++++..................+++++........++++++...........   ",
"   .....+++++..................+++++.........+++++...........   ",
"   .....+++++..................+++++.........++++++..........   ",
"   .....+++++..................+++++.........++++++..........   ",
"   .....+++++..................+++++..........+++++..........   ",
"   .....+++++..................+++++..........++++++.........   ",
"   .....+++++........+++.......+++++..........++++++.........   ",
"   .....+++++....++++++++......+++++...........+++++.........   ",
"   .....+++++.+++++++++++......+++++...........++++++........   ",
"   .....+++++++++++++++++......+++++...........++++++........   ",
"   .....+++++++++++++++++......+++++..........+++++++.......    ",
"   .....++++++++++++++++.......+++++..+++++++++++++++.......    ",
"   ....++++++++++++............+++++++++++++++++++++++......    ",
"   ....+++++++++...............+++++++++++++++++++++++......    ",
"   ....++++++++................+++++++++++++++++++++++......    ",
"   ....+++++..................++++++++++++++++++.+++++......    ",
"   ....+++++..................+++++++++++........+++++......    ",
"  .....+++++..................+++++..............+++++......    ",
"  .....+++++..................+++++..............+++++......    ",
"  .....+++++..................+++++..............+++++......    ",
"  .....+++++..................+++++..............+++++......    ",
"  .....+++++.....+++.........++++++..............+++++......    ",
"  .....+++++....+++++........++++++.............++++++......    ",
"  .....++++++++++++++........+++++..............++++++......    ",
"  .....++++++++++++++........+++++..............+++++.......    ",
"  .....++++++++++++++........+++++..............+++++.......    ",
"  .....+++++++++++++..........+++...............+++++.......    ",
"  ......+++++++++++..............................+++........    ",
"   .........................................................    ",
"   .........................................................    ",
"   .........................................................    ",
"   .........................................................    ",
"  ..........................................................    ",
"  ..........................................................    ",
"  ..........................................................    ",
"  ..........................................................    ",
"  ..........................................................    ",
"  ..........................................................    ",
"  ..........................................................    ",
"  ..........................................................    ",
"   .........................................................    ",
"                                                                ",
"                                                                ",
"                                                                "};
