/* XPM */
static char * no_xpm[] = {
"64 64 3 1",
" 	c #3A363A",
".	c #0800FF",
"+	c #CCC3E8",
"                                                                ",
"                                                                ",
"  ......          ............................................  ",
"  ............................................................  ",
"  ............................................................  ",
"  ............................................................  ",
"  ............................................................  ",
"  ...........................................................   ",
"  ...........................................................   ",
"  ...........................................................   ",
"  ...........................................................   ",
"  ...........................................................   ",
"  ...........................................................   ",
"  ......................+++..................................   ",
"  .....................+++++..............+++++..............   ",
"  .......+++...........+++++............+++++++++............   ",
"  ......+++++..........+++++...........++++++++++++..........   ",
"  ......++++++.........+++++..........++++++++++++++.........   ",
"   .....++++++.........+++++.........++++++++++++++++........   ",
"   .....+++++++........+++++........++++++++.+++++++++.......   ",
"   .....++++++++.......+++++........+++++++....++++++++......   ",
"   .....++++++++.......+++++........++++++.......++++++.......  ",
"   .....+++++++++......+++++.......++++++.........+++++.......  ",
"   ......+++++++++.....++++++......++++++.........+++++.......  ",
"   ......++++++++++....++++++......+++++..........+++++.......  ",
"   ......++++++++++....++++++......+++++..........+++++.......  ",
"   ......+++++++++++....+++++......+++++..........+++++........ ",
"   ......+++++++++++....+++++......+++++..........+++++........ ",
"   ......+++++.++++++...+++++......+++++.........++++++........ ",
"   ......+++++.+++++++..+++++......+++++.........++++++........ ",
"   ......+++++..++++++..+++++......+++++.........+++++......... ",
"   ......+++++...++++++.+++++......+++++........++++++......... ",
"   ......+++++...++++++++++++......+++++........++++++......... ",
"   ......+++++....+++++++++++......+++++........+++++.......... ",
"   ......+++++.....++++++++++......+++++.......++++++.......... ",
"   ......+++++.....++++++++++......++++++......++++++.......... ",
"   ......+++++......+++++++++......++++++......+++++........... ",
"   ......+++++......+++++++++.......+++++.....++++++........... ",
"   ......+++++.......++++++++.......+++++.....++++++..........  ",
"   ......+++++.......++++++++.......++++++....++++++..........  ",
"   ......+++++........+++++++.......++++++...++++++...........  ",
"   ......+++++........+++++++.......+++++++++++++++...........  ",
"   ......+++++.........++++++........++++++++++++++...........  ",
"   ......+++++.........++++++........+++++++++++++............  ",
"  .......+++++.........++++++.........+++++++++++.............  ",
"  .......+++++..........+++++...........+++++++++.............  ",
"  .......+++++..........+++++.............++++++..............  ",
"  .......+++++...........+++..................................  ",
"  .......+++++................................................  ",
"  .......+++++................................................  ",
"  .......+++++................................................  ",
"  .......+++++................................................  ",
"  ........+++.................................................  ",
"  ............................................................  ",
"  ...........................................................   ",
"  ...........................................................   ",
"   ..........................................................   ",
"   ..........................................................   ",
"   ..........................................................   ",
"   ..........................................................   ",
"   .....................................................        ",
"                                               .......          ",
"                                                                ",
"                                                                "};
