/* XPM */
static char * so_xpm[] = {
"64 64 3 1",
" 	c #3A363A",
".	c #1EF10A",
"+	c #CCC3E8",
"                                                                ",
"                                                                ",
"  ...................................................           ",
"  ............................................................  ",
"  ............................................................  ",
"  ............................................................  ",
"  ............................................................  ",
"  ............................................................  ",
"  ............................................................  ",
"  ............................................................  ",
"  ............................................................  ",
"   ...........................................................  ",
"    ..........................................................  ",
"    ..........................................................  ",
"    ..........................................................  ",
"    ..........................................................  ",
"    ..........................................................  ",
"    .........++++++++........................................   ",
"    ........++++++++++.......................................   ",
"    .......+++++++++++.......................................   ",
"   .......++++++++++++.......................................   ",
"   ......+++++++++++++...............++++++..................   ",
"   ......++++++..+++++..............++++++++.................   ",
"   ......+++++....+++..............+++++++++++...............   ",
"  .......+++++....................+++++++++++++..............   ",
"  .......+++++....................++++++++++++++.............   ",
"  .......++++++...................+++++++++++++++............   ",
"  .......+++++++..................+++++...+++++++............   ",
" ........++++++++.................+++++....++++++............   ",
" .........++++++++...............++++++.....+++++............   ",
" ..........+++++++++.............++++++.....+++++............   ",
" ...........+++++++++............++++++.....++++++...........   ",
" .............++++++++...........+++++......++++++...........   ",
" ..............++++++++..........+++++.......+++++...........   ",
" ...............+++++++..........+++++.......+++++...........   ",
" ................++++++..........+++++.......+++++...........   ",
" .................++++++.........+++++.......+++++...........   ",
" .................++++++.........+++++.......+++++...........   ",
" ..................+++++.........+++++......++++++...........   ",
" .................++++++.........++++++.....++++++...........   ",
" ................+++++++.........+++++++....++++++...........   ",
" ........++++.+++++++++..........++++++++++++++++............   ",
" .......++++++++++++++............+++++++++++++++............   ",
" ......++++++++++++++..............++++++++++++++............   ",
" ......+++++++++++++................++++++++++++.............   ",
" ......++++++++++++...................+++++++++..............   ",
" .......+++++++++........................+++++...............   ",
" .............................................................  ",
" .............................................................  ",
" .............................................................  ",
" .............................................................  ",
" .............................................................  ",
" .............................................................  ",
" .............................................................  ",
" .............................................................  ",
" .............................................................  ",
" .............................................................  ",
" .............................................................. ",
" .............................................................. ",
" .............................................................  ",
" .............................................................  ",
" ......                                     ..................  ",
" .                                                              ",
"                                                                "};
