/* XPM */
static char * we_xpm[] = {
"64 64 3 1",
" 	c #3A363A",
".	c #FF0000",
"+	c #CCC3E8",
"                                                                ",
"                                                                ",
"  ...                     ....................................  ",
"  ............................................................  ",
"  ............................................................  ",
"  ............................................................  ",
"  ............................................................  ",
"  ............................................................  ",
"  ............................................................  ",
"  ............................................................  ",
"  ............................................................  ",
"  ............................................................. ",
"  ............................................................. ",
"  ............................................++++++.++++...... ",
"  ..............................+++..........+++++++++++++..... ",
"  ..+++........................+++++........++++++++++++++..... ",
"   +++++......................++++++.......+++++++++++++++..... ",
"   ++++++.....................++++++......+++++++++++++++...... ",
"   ++++++.....................++++++......++++++++++++++....... ",
"   .++++++....................+++++.......+++++................ ",
"   .++++++....................+++++.......+++++................ ",
"   ..++++++...................+++++.......+++++................ ",
"   ..++++++...................+++++.......+++++................ ",
"   ...++++++........++++......+++++.......+++++................ ",
"   ...++++++.......++++++.....+++++.......+++++...............  ",
"   ....++++++......++++++.....+++++.......+++++...............  ",
"   ....++++++.....+++++++.....+++++.......+++++...............  ",
"   ....+++++++....++++++++....+++++.......+++++++++++++++.....  ",
"   .....++++++....++++++++....+++++.......++++++++++++++++....  ",
"   ......++++++..++++++++++...+++++.......++++++++++++++++....  ",
"   ......++++++..+++++++++++..+++++.......++++++++++++++++....  ",
"   .......+++++..++++++++++++.+++++.......+++++++++++++++.....  ",
"   .......++++++.+++++.++++++++++++.......+++++++.............  ",
"   .......++++++++++++..+++++++++++.......+++++...............  ",
"   ........+++++++++++...++++++++++.......+++++...............  ",
"   ........++++++++++.....+++++++++.......+++++...............  ",
"   .........+++++++++......++++++++.......+++++...............  ",
"   .........+++++++++......+++++++........+++++.....+++.......  ",
"   ..........++++++++.......++++++........++++++...+++++......  ",
"   ..........++++++++.......++++++........++++++..++++++......  ",
"  ............++++++........++++++........++++++++++++++......  ",
"  ............++++++........++++++.........+++++++++++++......  ",
"  ............++++++.........++++..........+++++++++++++......  ",
"  .............+++++.......................++++++++++++......   ",
"  ..............+++.........................++++++++.........   ",
"  ...........................................................   ",
"  ...........................................................   ",
"  ...........................................................   ",
" ............................................................   ",
" ............................................................   ",
" ............................................................   ",
" ............................................................   ",
" ............................................................   ",
" ............................................................   ",
" ............................................................   ",
" ............................................................   ",
" ............................................................   ",
"  ............................................................  ",
"  ............................................................  ",
"  ............................................................  ",
"  ............................           .....................  ",
"                                               ..........       ",
"                                                                ",
"                                                                "};
